<svg width="1098" height="730" viewBox="0 0 1098 730" fill="none" xmlns="http://www.w3.org/2000/svg">
<path d="M690.243 395.025C682.333 395.025 676.077 393.404 671.474 390.163C666.87 386.856 664.342 382.253 663.888 376.353H673.03C673.483 380.114 675.137 382.901 677.989 384.717C680.842 386.532 685.024 387.44 690.534 387.44C700.454 387.44 705.413 384.263 705.413 377.909C705.413 375.316 704.635 373.339 703.079 371.977C701.588 370.551 699.027 369.513 695.397 368.865L682.657 366.531C672.09 364.586 666.806 359.529 666.806 351.36C666.806 346.109 668.783 341.96 672.738 338.912C676.693 335.865 682.106 334.342 688.978 334.342C696.045 334.342 701.686 335.898 705.9 339.01C710.179 342.122 712.642 346.465 713.291 352.041H704.344C703.631 348.605 702.01 346.076 699.481 344.456C696.953 342.77 693.419 341.927 688.881 341.927C684.537 341.927 681.198 342.705 678.865 344.261C676.531 345.752 675.364 347.957 675.364 350.874C675.364 353.078 676.109 354.829 677.6 356.126C679.156 357.357 681.652 358.297 685.088 358.946L697.731 361.28C703.306 362.317 707.391 364.132 709.984 366.726C712.577 369.319 713.874 372.82 713.874 377.229C713.874 382.869 711.832 387.245 707.747 390.357C703.663 393.469 697.828 395.025 690.243 395.025Z" fill="white"/>
<path d="M645.33 393.858V335.509H654.471V393.858H645.33ZM649.9 326.756C648.28 326.756 646.886 326.205 645.719 325.103C644.617 323.936 644.065 322.542 644.065 320.921C644.065 319.301 644.617 317.939 645.719 316.837C646.886 315.67 648.28 315.086 649.9 315.086C651.521 315.086 652.883 315.67 653.985 316.837C655.152 317.939 655.735 319.301 655.735 320.921C655.735 322.542 655.152 323.936 653.985 325.103C652.883 326.205 651.521 326.756 649.9 326.756Z" fill="white"/>
<path d="M602.068 393.858V345.234H597.205V335.509H607.319V346.206H611.403C613.089 342.77 615.618 340.079 618.989 338.134C622.425 336.125 626.477 335.12 631.145 335.12H635.91V342.9H630.659C624.564 342.9 619.799 344.715 616.363 348.345C612.927 351.976 611.209 356.903 611.209 363.127V393.858H602.068Z" fill="white"/>
<path d="M558.822 394.928C552.338 394.928 547.217 393.307 543.456 390.065C539.696 386.759 537.816 382.512 537.816 377.326C537.816 371.75 539.631 367.439 543.262 364.392C546.957 361.345 552.274 359.821 559.211 359.821H580.216V357.098C580.216 347.114 574.868 342.122 564.17 342.122C555.483 342.122 550.264 345.428 548.513 352.041H539.177C540.085 346.465 542.776 342.122 547.249 339.01C551.787 335.898 557.525 334.342 564.462 334.342C572.372 334.342 578.434 336.254 582.648 340.079C586.862 343.84 588.969 349.286 588.969 356.417V384.133H593.442V393.858H583.328V385.106H579.244C577.234 388.088 574.446 390.487 570.881 392.302C567.315 394.053 563.295 394.928 558.822 394.928ZM559.989 387.342C563.684 387.342 567.055 386.564 570.103 385.008C573.215 383.452 575.678 381.378 577.493 378.785C579.309 376.126 580.216 373.209 580.216 370.032V366.823H559.891C550.88 366.823 546.374 370.194 546.374 376.937C546.374 380.114 547.573 382.642 549.972 384.522C552.436 386.402 555.775 387.342 559.989 387.342Z" fill="white"/>
<path d="M518.278 393.858V312.169H527.42V393.858H518.278Z" fill="white"/>
<path d="M480.663 395.025C474.699 395.025 469.512 393.793 465.103 391.33C460.695 388.801 457.259 385.268 454.795 380.729C452.396 376.191 451.197 370.843 451.197 364.683C451.197 358.524 452.396 353.176 454.795 348.637C457.194 344.099 460.597 340.598 465.006 338.134C469.48 335.606 474.699 334.342 480.663 334.342C486.757 334.342 491.976 335.574 496.32 338.037C500.729 340.501 504.133 344.002 506.531 348.54C508.93 353.078 510.13 358.46 510.13 364.683C510.13 370.843 508.93 376.224 506.531 380.827C504.133 385.365 500.729 388.866 496.32 391.33C491.912 393.793 486.693 395.025 480.663 395.025ZM480.663 387.051C487.082 387.051 492.074 385.106 495.639 381.216C499.205 377.261 500.988 371.75 500.988 364.683C500.988 357.552 499.205 352.041 495.639 348.151C492.074 344.261 487.082 342.316 480.663 342.316C474.31 342.316 469.317 344.294 465.687 348.248C462.121 352.138 460.338 357.617 460.338 364.683C460.338 371.75 462.121 377.261 465.687 381.216C469.317 385.106 474.31 387.051 480.663 387.051Z" fill="white"/>
<path d="M388.693 417.198V345.234H383.83V335.509H393.944V344.261H398.028C399.973 341.02 402.599 338.556 405.906 336.87C409.212 335.185 413.199 334.342 417.867 334.342C423.637 334.342 428.565 335.574 432.649 338.037C436.733 340.436 439.845 343.905 441.985 348.443C444.189 352.981 445.291 358.395 445.291 364.683C445.291 370.972 444.222 376.386 442.082 380.924C439.943 385.462 436.863 388.963 432.843 391.427C428.889 393.826 424.156 395.025 418.645 395.025C413.912 395.025 409.763 394.085 406.197 392.205C402.696 390.26 400.038 387.504 398.223 383.939H397.834V417.198H388.693ZM416.603 387.245C422.762 387.245 427.56 385.268 430.996 381.313C434.432 377.358 436.15 371.815 436.15 364.683C436.15 357.552 434.432 352.009 430.996 348.054C427.56 344.099 422.762 342.122 416.603 342.122C410.963 342.122 406.424 343.743 402.988 346.984C399.552 350.226 397.834 354.537 397.834 359.918V369.449C397.834 374.83 399.552 379.141 402.988 382.383C406.424 385.624 410.963 387.245 416.603 387.245Z" fill="white"/>
</svg>